<?xml version="1.0" encoding="UTF-8"?>
<svg width="15px" height="15px" viewBox="0 0 15 15" version="1.1" xmlns="http://www.w3.org/2000/svg" xmlns:xlink="http://www.w3.org/1999/xlink">
    <!-- Generator: sketchtool 55.2 (78181) - https://sketchapp.com -->
    <title>13FEC7EE-1340-48F6-B5DE-3549C3B8A145</title>
    <desc>Created with sketchtool.</desc>
    <g id="Symbols" stroke="none" stroke-width="1" fill="none" fill-rule="evenodd">
        <g id="Icon-/-person" fill="#2DA1AD" fill-rule="nonzero">
            <path d="M7.5,6.5 C5.84314575,6.5 4.5,5.15685425 4.5,3.5 C4.5,1.84314575 5.84314575,0.5 7.5,0.5 C9.15685425,0.5 10.5,1.84314575 10.5,3.5 C10.5,5.15685425 9.15685425,6.5 7.5,6.5 Z M7.5,5.5 C8.6045695,5.5 9.5,4.6045695 9.5,3.5 C9.5,2.3954305 8.6045695,1.5 7.5,1.5 C6.3954305,1.5 5.5,2.3954305 5.5,3.5 C5.5,4.6045695 6.3954305,5.5 7.5,5.5 Z M15,14.75 L14,14.75 C14,11.2982203 11.2017797,8.5 7.75,8.5 C4.29822031,8.5 1.5,11.2982203 1.5,14.75 L0.5,14.75 C0.5,10.7459356 3.74593556,7.5 7.75,7.5 C11.7540644,7.5 15,10.7459356 15,14.75 Z" id="Combined-Shape"></path>
        </g>
    </g>
</svg>